<?xml version="1.0" encoding="utf-8"?>
<svg version="1.1" id="Layer_1" xmlns="http://www.w3.org/2000/svg" xmlns:xlink="http://www.w3.org/1999/xlink" x="0px" y="0px"
	 viewBox="0 0 187.6 51.9" style="enable-background:new 0 0 187.6 51.9;" xml:space="preserve">
<style type="text/css">
	.st0{fill:#587EBE;}
	.st1{fill:#E3352A;}
	.st2{fill:#F8BE00;}
	.st3{fill:#319F43;}
</style>
<g>
	<path class="st0" d="M28.7,11.3L23,14.7c-1.1-1.9-2.1-3.1-3.1-3.6c-1-0.6-2.3-1-3.9-1c-2,0-3.6,0.6-4.9,1.7
		c-1.3,1.1-1.9,2.5-1.9,4.1c0,2.3,1.7,4.1,5.1,5.5l4.7,1.9c3.8,1.5,6.6,3.4,8.3,5.6c1.8,2.2,2.6,4.9,2.6,8.1c0,4.3-1.4,7.8-4.3,10.6
		c-2.9,2.8-6.5,4.2-10.7,4.2c-4.1,0-7.4-1.2-10-3.6C2.3,45.9,0.6,42.5,0,38.2l7.1-1.6c0.3,2.7,0.9,4.6,1.7,5.7c1.5,2,3.6,3,6.3,3
		c2.2,0,4-0.7,5.5-2.2c1.5-1.5,2.2-3.3,2.2-5.6c0-0.9-0.1-1.7-0.4-2.5c-0.3-0.8-0.6-1.5-1.2-2.1c-0.5-0.6-1.2-1.2-2.1-1.8
		c-0.8-0.6-1.9-1.1-3-1.6l-4.5-1.9C5.3,25,2.1,21,2.1,15.8c0-3.5,1.3-6.4,4-8.8c2.7-2.4,6-3.6,10-3.6C21.5,3.5,25.7,6.1,28.7,11.3z"
		/>
	<path class="st1" d="M63.9,37.9H42.8c0.2,2.4,1,4.3,2.4,5.8c1.4,1.4,3.2,2.1,5.4,2.1c1.7,0,3.1-0.4,4.2-1.2
		c1.1-0.8,2.3-2.3,3.7-4.5l5.7,3.2c-0.9,1.5-1.8,2.8-2.8,3.9c-1,1.1-2,2-3.2,2.7c-1.1,0.7-2.3,1.2-3.7,1.5c-1.3,0.3-2.7,0.5-4.3,0.5
		c-4.4,0-7.9-1.4-10.6-4.2c-2.7-2.8-4-6.6-4-11.3c0-4.7,1.3-8.4,3.9-11.3c2.6-2.8,6-4.3,10.3-4.3c4.3,0,7.8,1.4,10.3,4.1
		c2.5,2.7,3.7,6.5,3.7,11.4L63.9,37.9z M57,32.4c-0.9-3.6-3.2-5.4-6.9-5.4c-0.8,0-1.6,0.1-2.3,0.4c-0.7,0.3-1.4,0.6-2,1.1
		c-0.6,0.5-1.1,1-1.5,1.7c-0.4,0.7-0.7,1.4-1,2.3H57z"/>
	<path class="st2" d="M93.1,21.6h6.8v29.4h-6.8V48c-2.8,2.6-5.8,3.9-9,3.9c-4.1,0-7.4-1.5-10.1-4.4c-2.6-3-4-6.8-4-11.2
		c0-4.4,1.3-8.1,4-11c2.6-2.9,5.9-4.4,9.9-4.4c3.4,0,6.5,1.4,9.2,4.2V21.6z M76.9,36.2c0,2.8,0.8,5.1,2.3,6.9
		c1.6,1.8,3.5,2.7,5.9,2.7c2.5,0,4.6-0.9,6.1-2.6c1.6-1.8,2.3-4.1,2.3-6.8c0-2.8-0.8-5-2.3-6.8c-1.6-1.8-3.6-2.6-6-2.6
		c-2.3,0-4.3,0.9-5.9,2.7C77.7,31.4,76.9,33.6,76.9,36.2z"/>
	<path class="st0" d="M108.5,21.6h6.8v2.6c1.3-1.3,2.4-2.2,3.3-2.7c1-0.5,2.2-0.8,3.5-0.8c1.8,0,3.7,0.6,5.6,1.8l-3.1,6.2
		c-1.3-0.9-2.5-1.4-3.8-1.4c-3.7,0-5.6,2.8-5.6,8.4v15.3h-6.8V21.6z"/>
	<path class="st3" d="M154,22.9v9c-1.6-1.9-2.9-3.2-4.2-3.9c-1.2-0.7-2.6-1.1-4.3-1.1c-2.6,0-4.7,0.9-6.4,2.7
		c-1.7,1.8-2.5,4-2.5,6.7c0,2.8,0.8,5,2.4,6.8c1.7,1.8,3.8,2.7,6.3,2.7c1.6,0,3.1-0.4,4.3-1.1c1.2-0.7,2.6-2,4.3-4v9
		c-2.8,1.4-5.5,2.1-8.3,2.1c-4.6,0-8.4-1.5-11.4-4.4c-3.1-3-4.6-6.6-4.6-11c0-4.4,1.6-8.1,4.7-11.1c3.1-3,6.9-4.5,11.4-4.5
		C148.7,20.8,151.5,21.5,154,22.9z"/>
	<path class="st1" d="M162.2,0h6.8v24.1c2.4-2.2,5.1-3.3,8-3.3c3.3,0,6,1.1,8,3.2c1.7,1.9,2.5,4.9,2.5,9v18.1h-6.8V33.6
		c0-2.4-0.4-4.1-1.3-5.1c-0.8-1.1-2.2-1.6-4-1.6c-2.4,0-4.1,0.7-5,2.2c-0.9,1.5-1.4,4.1-1.4,7.7v14.2h-6.8V0z"/>
</g>
</svg>
